<svg xmlns="http://www.w3.org/2000/svg" viewBox="0 0 1290.82 398.38"><defs><style>.cls-1,.cls-3{fill:#52a54b;}.cls-1,.cls-2{fill-rule:evenodd;}.cls-2{fill:#354254;}</style></defs><title>ru</title><g id="Layer_2" data-name="Layer 2"><g id="Layer_1-2" data-name="Layer 1"><path class="cls-1" d="M185.51,398.38c-29.23-16.92-58.46-33.69-87.54-50.61V253.62c-21.23-12.31-42.46-24.46-63.54-36.77-10.46,7.69-20.15,8-28.3.31-6.62-6.31-8.31-15.85-2.93-24.77a19.73,19.73,0,0,1,24.62-7.69A20,20,0,0,1,39.2,208.24C60.74,220.7,82.28,233,104,245.62c26.92-15.54,53.69-31.08,80.77-46.61l81.69,47.07c28.61-8,57.23-16.15,86.15-24.31q12.69-48.45,25.69-97.53c33.23-3.85,66.46-7.54,99.84-11.39q10.15-38.29,20-75.84c-10.46-7.23-11.54-18.46-7.38-26.31A20,20,0,0,1,513.65.7a19.75,19.75,0,0,1,14.46,20.93,19.15,19.15,0,0,1-6.77,13.07,20,20,0,0,1-13.69,4.93Q496.81,80.7,486,121.93c-33.23,3.85-66.46,7.54-99.84,11.39q-12,45.45-24.16,91.22Q390.34,264.7,419,305l-46.16,59.54c6.47,9.38,6.47,18.61-1.38,26.92-5.69,6-13.23,7.54-20.92,4.46-8.46-3.23-12.62-10-12.92-19.23-3.39-1.23-6.77-2.46-10.16-3.84L285,357.16c-5.38-2-10.77-3.85-16.15-5.85a3.13,3.13,0,0,0-2.62.15c-6.77,4-13.69,7.85-20.46,11.85-12.46,7.23-24.92,14.46-37.54,21.69-7.69,4.62-15.23,8.92-22.76,13.38ZM261,343.46V254.7c-25.54-14.77-50.92-29.39-76.46-44.16-25.69,14.93-51.23,29.54-76.76,44.31v87.38q38.76,22.39,77.69,44.92c25.07-14.61,50.3-29.07,75.53-43.69Zm9.85-88.3v86.92c23.07,8.46,46.15,17.07,69.23,25.54,6.3-8.77,14.46-11.54,24.46-8.47q21-27.22,42-54.15c-17.39-24.46-34.62-48.77-52-73.38q-41.77,11.77-83.69,23.54Z"/><path class="cls-2" d="M499.71,249a27.33,27.33,0,0,0,17.18-5.64c4.93-3.66,7.46-8.87,7.46-15.49h8.73l.14.43c.28,8.16-3,15.06-9.71,20.56a36.48,36.48,0,0,1-23.66,8.3c-12,0-21.26-4.08-27.88-12.39s-9.86-18.87-9.86-31.82V209.6c0-12.82,3.24-23.52,9.86-31.69s15.91-12.39,27.88-12.39a45.54,45.54,0,0,1,18.73,3.8,37,37,0,0,1,13.8,10.43L532.8,199h-8.31l-1.55-15.77a30.67,30.67,0,0,0-9.71-7A33.15,33.15,0,0,0,500,173.69q-14.16,0-21.12,10.14c-4.51,6.76-6.9,15.35-6.9,25.63v3.38c0,10.42,2.25,19.15,6.76,25.91,4.22,6.9,11.4,10.28,21,10.28Z"/><polygon class="cls-2" points="624.19 166.93 624.19 192 615.46 192 614.75 175.24 589.69 175.24 589.69 247.2 603.07 248.32 603.07 255.5 566.6 255.5 566.6 248.32 579.97 247.2 579.97 175.24 556.03 175.24 555.33 192 546.6 192 546.6 166.93 624.19 166.93 624.19 166.93"/><path class="cls-2" d="M636.58,174.25v-7.32h21.55l1.26,13.8a32,32,0,0,1,11.55-11.41,32.51,32.51,0,0,1,16.48-3.94q16.05,0,24.92,12.68c6.06,8.44,9,19.85,9,33.93v1.69c0,13.24-3,23.8-9,31.69s-14.22,11.82-24.78,11.82a35.28,35.28,0,0,1-16.34-3.52,30.36,30.36,0,0,1-11.4-10.13v37.59l13.37,1.13v7.32H636.72v-7.32l13.38-1.13V175.24l-13.52-1ZM711.36,212q0-16.89-6.76-27.46A21.93,21.93,0,0,0,685,173.83q-9.93,0-16,4.65a29.05,29.05,0,0,0-9.29,12.25v42.53a26.59,26.59,0,0,0,9.71,11.4,28.85,28.85,0,0,0,15.77,4.23c8.59,0,15.07-3.24,19.58-9.72s6.62-14.93,6.62-25.63V212Z"/><path class="cls-2" d="M816.41,174.25l-9,.71-35.76,94.63a49.51,49.51,0,0,1-8.88,15.35q-5.49,6.33-16,6.33a26.62,26.62,0,0,1-4.22-.42,24.08,24.08,0,0,1-3.66-.84l1.12-8.17c.71.14,1.69.28,3.1.42a30.19,30.19,0,0,0,3.1.14,12.84,12.84,0,0,0,10.28-4.51A40.07,40.07,0,0,0,763,266.21l4.64-11.83L736.28,175l-9-.71v-7.32h30.41v7.32l-10.56.85,21.55,56.47,3.1,10.7h.42l24.22-67-10.84-.85v-7.32h30.55v7.18Z"/><path class="cls-2" d="M827.81,174.25v-7.32h36.47v7.32l-13.37,1.13v31H864l21.69-27.6c3.66-4.65,6.9-8,9.85-10a16.75,16.75,0,0,1,9.58-3,13.24,13.24,0,0,1,4.79.85,42.4,42.4,0,0,1,4.5,2.11l-2.11,7.18c-1-.28-1.83-.56-2.67-.84a9.68,9.68,0,0,0-3-.28,10.51,10.51,0,0,0-6.48,2.11,35.15,35.15,0,0,0-6.76,6.9l-20.56,26,33.24,37.6,11.68,1v7.19H900.33l-35.91-40.56H850.91v32.39l13.37,1.12v7.19H827.81V248.6l13.38-1.12v-72l-13.38-1.27Z"/><polygon class="cls-2" points="1004.54 166.93 1004.54 192 995.81 192 995.1 175.24 970.04 175.24 970.04 247.2 983.41 248.32 983.41 255.5 946.94 255.5 946.94 248.32 960.32 247.2 960.32 175.24 936.38 175.24 935.68 192 927.09 192 927.09 166.93 1004.54 166.93 1004.54 166.93"/><path class="cls-2" d="M1105.22,174.25l-9,.71-35.77,94.63a49.49,49.49,0,0,1-8.87,15.35q-5.49,6.33-16,6.33a26.73,26.73,0,0,1-4.23-.42,24.38,24.38,0,0,1-3.66-.84l1.13-8.17c.7.14,1.69.28,3.1.42a30,30,0,0,0,3.09.14,12.81,12.81,0,0,0,10.28-4.51,39.62,39.62,0,0,0,6.62-11.68l4.65-11.83L1025.1,175l-9-.71v-7.32h30.42v7.32l-10.56.85,21.54,56.47,3.1,10.7h.42l24.22-67-10.84-.85v-7.32h30.56v7.18Z"/><path class="cls-2" d="M1115.5,174.25v-7.32h21.55l1.26,13.8a32,32,0,0,1,11.55-11.41,32.51,32.51,0,0,1,16.48-3.94q16,0,24.92,12.68c6.06,8.44,9,19.85,9,33.93v1.69c0,13.24-3,23.8-9,31.69s-14.22,11.82-24.78,11.82a35.28,35.28,0,0,1-16.34-3.52,30.28,30.28,0,0,1-11.4-10.13v37.59l13.37,1.13v7.32h-36.47v-7.32l13.38-1.13V175.24l-13.52-1ZM1190.27,212q0-16.89-6.75-27.46a21.93,21.93,0,0,0-19.58-10.7q-9.93,0-16,4.65a29.07,29.07,0,0,0-9.3,12.25v42.53a26.68,26.68,0,0,0,9.72,11.4,28.85,28.85,0,0,0,15.77,4.23c8.59,0,15.07-3.24,19.58-9.72s6.61-14.93,6.61-25.63V212Z"/><path class="cls-2" d="M1273.64,255.5a75.21,75.21,0,0,1-1.41-7.74,50.92,50.92,0,0,1-.42-6.62,38.82,38.82,0,0,1-13.1,11.55,36.62,36.62,0,0,1-18.45,4.65c-8.73,0-15.34-2.26-20.13-6.76S1213,240,1213,232.41q0-12.25,10.56-19.43c7-4.79,16.61-7.18,28.58-7.18h19.58V194.11c0-6.34-2-11.27-6.06-14.93s-9.71-5.35-17-5.35a45.69,45.69,0,0,0-13.52,2,27,27,0,0,0-10.13,5.49l-.85,11.83h-8.17l.14-17a53.77,53.77,0,0,1,14.65-7.74,55.24,55.24,0,0,1,18.16-3c9.72,0,17.61,2.54,23.52,7.47s8.87,12.11,8.87,21.4v43.51c0,1.83,0,3.52.14,5.21s.28,3.24.57,4.93l8.87.56v7.19h-17.18v-.15Zm-32.25-6.9a35.72,35.72,0,0,0,18.73-4.92A28.93,28.93,0,0,0,1271.81,231V213.26h-19.72c-8.87,0-16,1.83-21.26,5.49s-8,8.31-8,13.94a14.9,14.9,0,0,0,4.93,11.55c3.38,2.82,7.89,4.36,13.66,4.36Z"/><path class="cls-3" d="M501.3,347.43h6.14V363h-7.7v-9.11H477.27V324.65h8v22.78h8.13V324.65h7.95Z"/><path class="cls-3" d="M546.68,353.91H529.31V324.65h17.37V331h-9.47v4.61H546v6.34h-8.77v5.53h9.47Z"/><path class="cls-3" d="M594.85,353.91h-8V342h-9.19v11.93h-7.94V324.65h7.94V335.5h9.19V324.65h8Z"/><path class="cls-3" d="M632.05,353.91h-7.91v-22.8H617v-6.46h22.18v6.46h-7.12Z"/><path class="cls-3" d="M682.56,334q0,4.91-2.9,7.58t-8.21,2.67h-2.23v9.71h-7.9V324.65h10.13c3.69,0,6.47.8,8.32,2.42A8.62,8.62,0,0,1,682.56,334Zm-13.34,3.81h1.44a4,4,0,0,0,2.84-1,3.65,3.65,0,0,0,1-2.77c0-2-1.1-3-3.28-3h-2Z"/><path class="cls-3" d="M757.77,353.91h-8v-22.8h-8.06v22.8h-8V324.65h24Z"/><path class="cls-3" d="M795.07,330.71a5.06,5.06,0,0,0-4.41,2.31,11.23,11.23,0,0,0-1.58,6.38q0,8.44,6.43,8.45a13.15,13.15,0,0,0,3.76-.54c1.22-.36,2.44-.8,3.67-1.3v6.68a20.34,20.34,0,0,1-8.29,1.62q-6.63,0-10.16-3.84T781,339.36a17.63,17.63,0,0,1,1.72-8,12.24,12.24,0,0,1,4.92-5.29,14.82,14.82,0,0,1,7.56-1.86,20.79,20.79,0,0,1,9.07,2.07l-2.43,6.22a29,29,0,0,0-3.24-1.28A11.22,11.22,0,0,0,795.07,330.71Z"/><path class="cls-3" d="M826.6,324.65h7v12.57q0,2-.32,8h.16l11.67-20.58h9.77v29.26h-7V341.66q0-2.78.36-8.33h-.16l-11.77,20.58H826.6Z"/><path class="cls-3" d="M905.58,353.91h-9.15l-5.71-9.14-5.64,9.14h-9l9.71-15-9.13-14.29h8.77l5.28,9,5.09-9h9l-9.27,14.91Z"/><path class="cls-3" d="M954.2,339.24q0,7.38-3.62,11.23T940,354.31q-6.88,0-10.56-3.86t-3.67-11.25q0-7.31,3.65-11.16T940,324.19q7,0,10.59,3.82T954.2,339.24Zm-20.13,0q0,8.49,5.9,8.49a5.1,5.1,0,0,0,4.46-2.06c1-1.38,1.45-3.52,1.45-6.43s-.49-5.08-1.47-6.48a5,5,0,0,0-4.4-2.09Q934.07,330.67,934.07,339.24Z"/><path class="cls-3" d="M990.36,353.91h-7.91v-22.8h-7.14v-6.46h22.18v6.46h-7.13Z"/><path class="cls-3" d="M1037,353.91h-17.38V324.65H1037V331h-9.47v4.61h8.77v6.34h-8.77v5.53H1037Z"/><path class="cls-3" d="M1081.33,334q0,4.91-2.89,7.58t-8.22,2.67H1068v9.71h-7.91V324.65h10.13c3.7,0,6.47.8,8.33,2.42A8.64,8.64,0,0,1,1081.33,334ZM1068,337.76h1.44a4,4,0,0,0,2.83-1,3.65,3.65,0,0,0,1-2.77q0-3-3.28-3h-2Z"/><path class="cls-3" d="M1121.91,353.91l-1.44-5.48H1111l-1.48,5.48h-8.69l9.55-29.38h10.55l9.67,29.38Zm-3.08-12-1.26-4.8c-.3-1.07-.65-2.45-1.08-4.15s-.69-2.91-.83-3.64c-.12.68-.35,1.8-.71,3.36s-1.13,4.64-2.35,9.23Z"/><path class="cls-3" d="M1175.66,353.91h-8v-22.8h-8.07v22.8h-8V324.65h24Z"/><path class="cls-3" d="M1199.93,324.65h7v12.57c0,1.33-.1,4-.32,8h.16l11.68-20.58h9.76v29.26h-7V341.66q0-2.78.36-8.33h-.16l-11.77,20.58h-9.75Z"/><path class="cls-3" d="M1252.54,324.65h7v12.57q0,2-.32,8h.16l11.67-20.58h9.77v29.26h-7V341.66q0-2.78.36-8.33h-.16l-11.77,20.58h-9.75Z"/></g></g></svg>