<svg xmlns="http://www.w3.org/2000/svg" viewBox="0 0 1290.82 398.38"><defs><style>.cls-1,.cls-3{fill:#52a54b;}.cls-1,.cls-2{fill-rule:evenodd;}.cls-2{fill:#354254;}</style></defs><title>ua</title><g id="Layer_2" data-name="Layer 2"><g id="Layer_1-2" data-name="Layer 1"><path class="cls-1" d="M185.51,398.38c-29.23-16.92-58.46-33.69-87.54-50.61V253.62c-21.23-12.31-42.46-24.46-63.54-36.77-10.46,7.69-20.15,8-28.3.31-6.62-6.31-8.31-15.85-2.93-24.77a19.73,19.73,0,0,1,24.62-7.69A20,20,0,0,1,39.2,208.24C60.74,220.7,82.28,233,104,245.62c26.92-15.54,53.69-31.08,80.77-46.61l81.69,47.07c28.61-8,57.23-16.15,86.15-24.31q12.69-48.45,25.69-97.53c33.23-3.85,66.46-7.54,99.84-11.39q10.15-38.29,20-75.84c-10.46-7.23-11.54-18.46-7.38-26.31A20,20,0,0,1,513.65.7a19.75,19.75,0,0,1,14.46,20.93,19.15,19.15,0,0,1-6.77,13.07,20,20,0,0,1-13.69,4.93Q496.81,80.7,486,121.93c-33.23,3.85-66.46,7.54-99.84,11.39q-12,45.45-24.16,91.22Q390.34,264.7,419,305l-46.16,59.54c6.47,9.38,6.47,18.61-1.38,26.92-5.69,6-13.23,7.54-20.92,4.46-8.46-3.23-12.62-10-12.92-19.23-3.39-1.23-6.77-2.46-10.16-3.84L285,357.16c-5.38-2-10.77-3.85-16.15-5.85a3.13,3.13,0,0,0-2.62.15c-6.77,4-13.69,7.85-20.46,11.85-12.46,7.23-24.92,14.46-37.54,21.69-7.69,4.62-15.23,8.92-22.76,13.38ZM261,343.46V254.7c-25.54-14.77-50.92-29.39-76.46-44.16-25.69,14.93-51.23,29.54-76.76,44.31v87.38q38.76,22.39,77.69,44.92c25.07-14.61,50.3-29.07,75.53-43.69Zm9.85-88.3v86.92c23.07,8.46,46.15,17.07,69.23,25.54,6.3-8.77,14.46-11.54,24.46-8.47q21-27.22,42-54.15c-17.39-24.46-34.62-48.77-52-73.38q-41.77,11.77-83.69,23.54Z"/><path class="cls-2" d="M499.71,249a27.33,27.33,0,0,0,17.18-5.64c4.93-3.66,7.46-8.87,7.46-15.49h8.73l.14.43c.28,8.16-3,15.06-9.71,20.56a36.48,36.48,0,0,1-23.66,8.3c-12,0-21.26-4.08-27.88-12.39s-9.86-18.87-9.86-31.82V209.6c0-12.82,3.24-23.52,9.86-31.69s15.91-12.39,27.88-12.39a45.54,45.54,0,0,1,18.73,3.8,37,37,0,0,1,13.8,10.43L532.8,199h-8.31l-1.55-15.77a30.67,30.67,0,0,0-9.71-7A33.15,33.15,0,0,0,500,173.69q-14.16,0-21.12,10.14c-4.51,6.76-6.9,15.35-6.9,25.63v3.38c0,10.42,2.25,19.15,6.76,25.91,4.22,6.9,11.4,10.28,21,10.28Z"/><polygon class="cls-2" points="624.19 166.93 624.19 192 615.46 192 614.75 175.24 589.69 175.24 589.69 247.2 603.07 248.32 603.07 255.5 566.6 255.5 566.6 248.32 579.97 247.2 579.97 175.24 556.03 175.24 555.33 192 546.6 192 546.6 166.93 624.19 166.93 624.19 166.93"/><path class="cls-2" d="M636.58,174.25v-7.32h21.55l1.26,13.8a32,32,0,0,1,11.55-11.41,32.51,32.51,0,0,1,16.48-3.94q16.05,0,24.92,12.68c6.06,8.44,9,19.85,9,33.93v1.69c0,13.24-3,23.8-9,31.69s-14.22,11.82-24.78,11.82a35.28,35.28,0,0,1-16.34-3.52,30.36,30.36,0,0,1-11.4-10.13v37.59l13.37,1.13v7.32H636.72v-7.32l13.38-1.13V175.24l-13.52-1ZM711.36,212q0-16.89-6.76-27.46A21.93,21.93,0,0,0,685,173.83q-9.93,0-16,4.65a29.05,29.05,0,0,0-9.29,12.25v42.53a26.59,26.59,0,0,0,9.71,11.4,28.85,28.85,0,0,0,15.77,4.23c8.59,0,15.07-3.24,19.58-9.72s6.62-14.93,6.62-25.63V212Z"/><path class="cls-2" d="M816.41,174.25l-9,.71-35.76,94.63a49.51,49.51,0,0,1-8.88,15.35q-5.49,6.33-16,6.33a26.62,26.62,0,0,1-4.22-.42,24.08,24.08,0,0,1-3.66-.84l1.12-8.17c.71.14,1.69.28,3.1.42a30.19,30.19,0,0,0,3.1.14,12.84,12.84,0,0,0,10.28-4.51A40.07,40.07,0,0,0,763,266.21l4.64-11.83L736.28,175l-9-.71v-7.32h30.41v7.32l-10.56.85,21.55,56.47,3.1,10.7h.42l24.22-67-10.84-.85v-7.32h30.55v7.18Z"/><path class="cls-2" d="M827.81,174.25v-7.32h36.47v7.32l-13.37,1.13v31H864l21.69-27.6c3.66-4.65,6.9-8,9.85-10a16.75,16.75,0,0,1,9.58-3,13.24,13.24,0,0,1,4.79.85,42.4,42.4,0,0,1,4.5,2.11l-2.11,7.18c-1-.28-1.83-.56-2.67-.84a9.68,9.68,0,0,0-3-.28,10.51,10.51,0,0,0-6.48,2.11,35.15,35.15,0,0,0-6.76,6.9l-20.56,26,33.24,37.6,11.68,1v7.19H900.33l-35.91-40.56H850.91v32.39l13.37,1.12v7.19H827.81V248.6l13.38-1.12v-72l-13.38-1.27Z"/><polygon class="cls-2" points="1004.54 166.93 1004.54 192 995.81 192 995.1 175.24 970.04 175.24 970.04 247.2 983.41 248.32 983.41 255.5 946.94 255.5 946.94 248.32 960.32 247.2 960.32 175.24 936.38 175.24 935.68 192 927.09 192 927.09 166.93 1004.54 166.93 1004.54 166.93"/><path class="cls-2" d="M1105.22,174.25l-9,.71-35.77,94.63a49.49,49.49,0,0,1-8.87,15.35q-5.49,6.33-16,6.33a26.73,26.73,0,0,1-4.23-.42,24.38,24.38,0,0,1-3.66-.84l1.13-8.17c.7.14,1.69.28,3.1.42a30,30,0,0,0,3.09.14,12.81,12.81,0,0,0,10.28-4.51,39.62,39.62,0,0,0,6.62-11.68l4.65-11.83L1025.1,175l-9-.71v-7.32h30.42v7.32l-10.56.85,21.54,56.47,3.1,10.7h.42l24.22-67-10.84-.85v-7.32h30.56v7.18Z"/><path class="cls-2" d="M1115.5,174.25v-7.32h21.55l1.26,13.8a32,32,0,0,1,11.55-11.41,32.51,32.51,0,0,1,16.48-3.94q16,0,24.92,12.68c6.06,8.44,9,19.85,9,33.93v1.69c0,13.24-3,23.8-9,31.69s-14.22,11.82-24.78,11.82a35.28,35.28,0,0,1-16.34-3.52,30.28,30.28,0,0,1-11.4-10.13v37.59l13.37,1.13v7.32h-36.47v-7.32l13.38-1.13V175.24l-13.52-1ZM1190.27,212q0-16.89-6.75-27.46a21.93,21.93,0,0,0-19.58-10.7q-9.93,0-16,4.65a29.07,29.07,0,0,0-9.3,12.25v42.53a26.68,26.68,0,0,0,9.72,11.4,28.85,28.85,0,0,0,15.77,4.23c8.59,0,15.07-3.24,19.58-9.72s6.61-14.93,6.61-25.63V212Z"/><path class="cls-2" d="M1273.64,255.5a75.21,75.21,0,0,1-1.41-7.74,50.92,50.92,0,0,1-.42-6.62,38.82,38.82,0,0,1-13.1,11.55,36.62,36.62,0,0,1-18.45,4.65c-8.73,0-15.34-2.26-20.13-6.76S1213,240,1213,232.41q0-12.25,10.56-19.43c7-4.79,16.61-7.18,28.58-7.18h19.58V194.11c0-6.34-2-11.27-6.06-14.93s-9.71-5.35-17-5.35a45.69,45.69,0,0,0-13.52,2,27,27,0,0,0-10.13,5.49l-.85,11.83h-8.17l.14-17a53.77,53.77,0,0,1,14.65-7.74,55.24,55.24,0,0,1,18.16-3c9.72,0,17.61,2.54,23.52,7.47s8.87,12.11,8.87,21.4v43.51c0,1.83,0,3.52.14,5.21s.28,3.24.57,4.93l8.87.56v7.19h-17.18v-.15Zm-32.25-6.9a35.72,35.72,0,0,0,18.73-4.92A28.93,28.93,0,0,0,1271.81,231V213.26h-19.72c-8.87,0-16,1.83-21.26,5.49s-8,8.31-8,13.94a14.9,14.9,0,0,0,4.93,11.55c3.38,2.82,7.89,4.36,13.66,4.36Z"/><path class="cls-3" d="M498.34,361.47v-7.58H477.16V324.72h7.68v21.71h8.81V324.72h7.68v21.71h3.89v15Zm33.05-7.58V324.72h15.86v6.88h-8.18v4.25h7.68v6.87h-7.68V347h8.77v6.88Zm58.92,0V343h-8.8v10.88h-7.68V324.72h7.68v10.79h8.8V324.72H598v29.17Zm48-22.29v22.29h-7.71V331.6h-7.14v-6.88H645.5v6.88Zm53.44,2.74a10.56,10.56,0,0,1-1.32,5.31,9,9,0,0,1-3.77,3.59,12.19,12.19,0,0,1-5.7,1.27h-2.35v9.38h-7.68V324.72h10.45c3.59,0,6.21.78,7.88,2.34s2.49,4,2.49,7.28Zm-8.11.3a3.71,3.71,0,0,0-.91-2.71,3.58,3.58,0,0,0-2.66-.92h-1.46v7.21h1.73q3.3,0,3.3-3.58Zm331.55-3v22.29h-7.72V331.6h-7.13v-6.88h22v6.88Zm32.62,22.29V324.72h15.86v6.88h-8.18v4.25h7.68v6.87h-7.68V347h8.77v6.88ZM1111,334.34a10.56,10.56,0,0,1-1.32,5.31,9,9,0,0,1-3.77,3.59,12.23,12.23,0,0,1-5.71,1.27h-2.34v9.38h-7.68V324.72h10.45q5.37,0,7.88,2.34t2.49,7.28Zm-8.12.3a3.71,3.71,0,0,0-.9-2.71,3.59,3.59,0,0,0-2.66-.92h-1.46v7.21h1.73c2.2,0,3.29-1.19,3.29-3.58Zm49.5,19.25-1.12-5.38h-7.61l-1.21,5.38h-8.29l8.77-29.17h9.53l8.27,29.17Zm-4.85-22.84h-.17a15.71,15.71,0,0,1-.25,1.61q-.21,1.13-2.15,9.6h4.87l-1.77-7.93a29.62,29.62,0,0,1-.53-3.28Zm55,22.84V332.18h-8.81v21.71h-7.68V324.72h24.17v29.17Zm35.05,0V324.72h7.68v29.17Zm35,0V324.72h7.68v29.17Zm12.3-35a3.3,3.3,0,0,1-.92,2.41,3.4,3.4,0,0,1-2.49.92,3.32,3.32,0,0,1-2.46-1,3.18,3.18,0,0,1-1-2.38,3.05,3.05,0,0,1,.94-2.34,3.46,3.46,0,0,1,2.49-.9,3.4,3.4,0,0,1,2.47.9,3.1,3.1,0,0,1,.94,2.34Zm-8.92,0a3.26,3.26,0,0,1-.92,2.38,3.7,3.7,0,0,1-5,0,3.2,3.2,0,0,1-1-2.36,3.05,3.05,0,0,1,.94-2.34,3.43,3.43,0,0,1,2.47-.9,3.49,3.49,0,0,1,2.49.88,3.08,3.08,0,0,1,.94,2.36Zm-504.1,35V332.18h-8.81v21.71h-7.68V324.72h24.17v29.17Zm54-.8a19,19,0,0,1-7.3,1.3,13.27,13.27,0,0,1-7-1.78,11.49,11.49,0,0,1-4.51-5.07,17.46,17.46,0,0,1-1.55-7.58,18.62,18.62,0,0,1,1.74-8.21,13,13,0,0,1,4.92-5.57,13.64,13.64,0,0,1,7.32-2,22.06,22.06,0,0,1,6.4.92v8.12a8.59,8.59,0,0,0-2.54-1.14,11.22,11.22,0,0,0-3-.4,6.23,6.23,0,0,0-4.93,2.06,8.08,8.08,0,0,0-1.81,5.57,8,8,0,0,0,1.81,5.52,6.16,6.16,0,0,0,4.82,2,11.24,11.24,0,0,0,5.64-1.63v7.83Zm43.75.8V341.64c0-1.79,0-3.4.1-4.84h-.07c-.23.46-.51,1-.82,1.49s-3.61,5.73-9.92,15.6h-6.73V324.72h7.1v12.71c0,1.58,0,2.73-.11,3.46h.07c0-.13.11-.26.18-.41s.56-.94,1.42-2.38l8.62-13.38h7.25v29.17Zm48.48,0-3.16-8a5.63,5.63,0,0,1-.4-1.48c-.07-.48-.12-.88-.15-1.19h-.08c-.06.33-.15.75-.25,1.29a10.25,10.25,0,0,1-.4,1.54l-3,7.84h-9.14l7.65-14.54-6.95-14.63h9.27l2.47,7.69a20.81,20.81,0,0,1,.62,2.85h.08a12.88,12.88,0,0,1,.65-2.88l2.88-7.66h8.55l-7.17,14.46,7.51,14.71Zm58.13-14.68a18.14,18.14,0,0,1-1.65,7.87,12.8,12.8,0,0,1-4.62,5.39,12.43,12.43,0,0,1-13.18.06,12.71,12.71,0,0,1-4.58-5.23,17.39,17.39,0,0,1-1.63-7.62,18.89,18.89,0,0,1,1.65-8,12.91,12.91,0,0,1,4.64-5.5,12.23,12.23,0,0,1,6.79-1.94,11.85,11.85,0,0,1,6.55,1.86,12.07,12.07,0,0,1,4.46,5.31,18.64,18.64,0,0,1,1.57,7.82Zm-8.15.25A11.2,11.2,0,0,0,967,333.8a3.67,3.67,0,0,0-3.3-2.08,4,4,0,0,0-3.56,2,12.94,12.94,0,0,0,0,11.18,3.93,3.93,0,0,0,3.46,2,3.6,3.6,0,0,0,2.39-.9,5.75,5.75,0,0,0,1.65-2.56,11.73,11.73,0,0,0,.59-4Z"/></g></g></svg>